<svg width="16" height="16" viewBox="0 0 16 16" fill="none" xmlns="http://www.w3.org/2000/svg">
<path d="M8 16C12.4183 16 16 12.4183 16 8C16 3.58172 12.4183 0 8 0C3.58172 0 0 3.58172 0 8C0 12.4183 3.58172 16 8 16Z" fill="white"/>
<path fill-rule="evenodd" clip-rule="evenodd" d="M16 8C16 12.4183 12.4183 16 8 16C3.58172 16 0 12.4183 0 8C0 3.58172 3.58172 0 8 0C8.86498 0 9.6979 0.137278 10.4782 0.391236L8.65658 5.99609H3.32645L2.67578 7.99609H8.00658L6.44531 12.8H8.64531L10.2066 7.99609H16C16 7.9974 16 7.9987 16 8ZM15.747 5.99609H10.8566L12.3811 1.3052C14.0221 2.38126 15.2436 4.0444 15.747 5.99609Z" fill="url(#paint0_linear_13346_5528)"/>
<defs>
<linearGradient id="paint0_linear_13346_5528" x1="-6.33134e-08" y1="6.93333" x2="16" y2="6.93333" gradientUnits="userSpaceOnUse">
<stop stop-color="#FF5C4D"/>
<stop offset="0.4" stop-color="#EB469F"/>
<stop offset="1" stop-color="#8341EF"/>
</linearGradient>
</defs>
</svg>
